<?xml version="1.0" encoding="utf-8"?>
<!-- Generator: Adobe Illustrator 21.0.2, SVG Export Plug-In . SVG Version: 6.00 Build 0)  -->
<!DOCTYPE svg PUBLIC "-//W3C//DTD SVG 1.1//EN" "http://www.w3.org/Graphics/SVG/1.1/DTD/svg11.dtd" [
	<!ENTITY st0 "fill:#FFFFFF;stroke:#000000;stroke-miterlimit:10;">
]>
<svg version="1.1" id="Layer_1" xmlns="http://www.w3.org/2000/svg" xmlns:xlink="http://www.w3.org/1999/xlink" x="0px" y="0px"
	 viewBox="0 0 512 512" style="enable-background:new 0 0 512 512;" xml:space="preserve">
<path style="&st0;" d="M256,37.2c2.1-0.7,30-9.1,53.1,9.6c16.7,13.5,24.1,35.9,19.1,57.3c23.4-14.2,53.2-10.9,71.9,7.3
	c20.6,20.1,23.3,53.8,5.1,78.1c38.1,13,58.5,53.5,47.8,88.8c-9.4,30.9-41.1,52.3-75.8,49.4c-28.5,0-56.9,0-85.4,0l3.9,150h-80.9
	l4.5-150.6l-83.1,0.6c-38.2,2.1-71.5-25.5-76.4-61.8c-4.6-33.7,16.3-67.1,50-78.1c-15.1-21.2-15.1-49.3-0.6-69.1
	c16.7-22.7,49.3-30,75.8-15.7c-0.5-3-4.4-29.2,14.6-49.4C213.7,38.4,235.4,32.2,256,37.2z"/>
</svg>
